<?xml version="1.0" encoding="utf-8"?>
<!-- Generator: Adobe Illustrator 22.0.0, SVG Export Plug-In . SVG Version: 6.00 Build 0)  -->
<svg version="1.1" id="Layer_1" xmlns="http://www.w3.org/2000/svg" xmlns:xlink="http://www.w3.org/1999/xlink" x="0px" y="0px"
	 viewBox="0 0 2581.7 2587" style="enable-background:new 0 0 2581.7 2587;" xml:space="preserve">
<path d="M1291.2,2419c-95.6,0-188.5-12-277.1-34.4l-40.9,160.9c101.7,25.8,208.3,39.5,318,39.5c500.2,0,933.9-284.6,1148.1-700.6
	l-147.6-76C2105,2171,1727.1,2419,1291.2,2419z"/>
<path d="M2202.3,380.6l-117.2,117.6c204.2,203.6,330.6,485.2,330.6,796.3c0,150.7-29.7,294.6-83.5,425.9l153.6,63
	c61.8-150.8,95.8-315.9,95.8-488.9C2581.7,937.4,2436.7,614.2,2202.3,380.6z"/>
<g>
	<path d="M166.7,1294.5c0-321,134.5-610.5,350.2-815.4L402.5,358.8C155,593.9,0.7,926.2,0.7,1294.5c0,564,361.9,1043.5,866.1,1219.1
		l54.6-156.8C482,2203.7,166.7,1785.9,166.7,1294.5z"/>
	<path d="M1291.2,4c-304.4,0-584.3,105.5-805,281.8l103.6,129.7C782.2,261.9,1026,170,1291.2,170c275,0,527,98.8,722.4,262.8
		l106.7-127.2C1896.1,117.4,1606.9,4,1291.2,4z"/>
</g>
</svg>
