<?xml version="1.0" encoding="utf-8"?>
<!-- Generator: Adobe Illustrator 22.0.0, SVG Export Plug-In . SVG Version: 6.00 Build 0)  -->
<svg version="1.1" id="Layer_1" xmlns="http://www.w3.org/2000/svg" xmlns:xlink="http://www.w3.org/1999/xlink" x="0px" y="0px"
	 viewBox="0 0 871.3 76.1" style="enable-background:new 0 0 871.3 76.1;" xml:space="preserve">
<path d="M353.6,1.8h-28.4l-28.1,72.9h28.5l5.2-13.6h17.1l5.2,13.6h28.5L353.6,1.8z M333.8,42.4l5.5-13.9l5.6,13.9H333.8z"/>
<polygon points="392.3,74.7 392.3,21.5 373.8,21.5 373.8,1.8 438.3,1.8 438.3,21.5 419.8,21.5 419.8,74.7 "/>
<path d="M643.8,75.9c-14.3,0-25.2-3.2-32.6-9.5c-7.4-6.3-11-15.7-11-28.1s3.6-21.8,10.9-28.1s18.1-9.5,32.5-9.5
	c4.7,0,8.8,0.3,12.4,1c3.6,0.7,7.1,1.7,10.6,2.9v23.9c-6.9-3.2-13.9-4.8-21.2-4.8c-5.3,0-9.5,1-12.6,3.1c-3.1,2.1-4.6,5.9-4.6,11.4
	s1.6,9.3,4.8,11.4c3.2,2.1,7.4,3.1,12.7,3.1c7.2,0,14.3-1.6,21.2-4.8v23.9c-3.5,1.2-7,2.2-10.6,2.9
	C652.6,75.5,648.5,75.9,643.8,75.9z"/>
<path d="M724.5,1.8H696l-28.1,72.9h28.5l5.2-13.6h17.1l5.2,13.6h28.5L724.5,1.8z M704.6,42.4l5.5-13.9l5.6,13.9H704.6z"/>
<polygon points="763.2,74.7 763.2,21.5 744.6,21.5 744.6,1.8 809.2,1.8 809.2,21.5 790.6,21.5 790.6,74.7 "/>
<path d="M838.4,75.9c-5.1,0-10.1-0.4-14.8-1.3c-4.8-0.9-8.8-2.1-12-3.8V50.3c3.5,1.7,7.5,3.2,12,4.3c4.5,1.1,8.4,1.7,11.9,1.7
	c2.3,0,4-0.3,5.3-0.8c1.3-0.6,1.9-1.4,1.9-2.4c0-1.4-1.2-2.4-3.6-3.2c-2.4-0.8-5.6-1.8-9.5-3.3c-4.7-1.8-8.4-3.7-11.1-5.7
	c-2.7-2-4.7-4.3-5.8-7.1c-1.2-2.8-1.8-6.2-1.8-10.4c0-15.2,10.7-22.8,32.1-22.8c2.4,0,5.1,0.2,8.1,0.5c3,0.3,5.9,0.8,8.7,1.3
	c2.8,0.5,5.2,1.1,7.2,1.7v20.6c-4.2-1.7-7.8-2.9-11-3.5s-6-0.9-8.4-0.9c-1.9,0-3.8,0.2-5.8,0.5c-2,0.3-2.9,1.1-2.9,2.3
	c0,1,0.9,1.8,2.6,2.3c1.7,0.6,4.5,1.4,8.3,2.4c6,1.7,10.6,3.6,13.6,5.9c3,2.3,5,5,6.1,8.2c1,3.1,1.5,6.7,1.5,10.8
	c0,6.9-2.7,12.5-8.2,16.7C857.3,73.8,849.2,75.9,838.4,75.9z"/>
</svg>
