<?xml version="1.0" encoding="utf-8"?>
<!-- Generator: Adobe Illustrator 22.0.0, SVG Export Plug-In . SVG Version: 6.00 Build 0)  -->
<svg version="1.1" id="Layer_1" xmlns="http://www.w3.org/2000/svg" xmlns:xlink="http://www.w3.org/1999/xlink" x="0px" y="0px"
	 viewBox="0 0 871.3 76.1" style="enable-background:new 0 0 871.3 76.1;" xml:space="preserve">
<polygon points="0.8,74.7 0.8,1.8 28.2,1.8 28.2,53.9 58,53.9 58,74.7 "/>
<path d="M132,16.2c-3.1-5.5-7.5-9.4-13.4-11.9c-5.8-2.5-12.8-3.7-21.1-3.7S82.4,1.9,76.5,4.3c-5.8,2.5-10.3,6.4-13.4,11.9
	c-3.1,5.5-4.6,12.8-4.6,22c0,9.1,1.5,16.5,4.6,22c3.1,5.5,7.5,9.5,13.4,12c5.8,2.5,12.8,3.7,21.1,3.7s15.3-1.2,21.1-3.7
	c5.8-2.5,10.3-6.4,13.4-12c3.1-5.5,4.6-12.8,4.6-22C136.7,29,135.1,21.7,132,16.2z M106.2,49.4c-1.7,2.2-4.5,3.2-8.6,3.2
	c-4,0-6.8-1.1-8.5-3.2c-1.7-2.2-2.5-5.9-2.5-11.2s0.8-9,2.5-11.2c1.7-2.2,4.5-3.2,8.5-3.2c4,0,6.9,1.1,8.6,3.2
	c1.7,2.2,2.5,5.9,2.5,11.2S107.9,47.3,106.2,49.4z"/>
<path d="M213.6,16.2c-3.1-5.5-7.5-9.4-13.4-11.9c-5.8-2.5-12.8-3.7-21.1-3.7c-8.2,0-15.3,1.2-21.1,3.7c-5.8,2.5-10.3,6.4-13.4,11.9
	c-3.1,5.5-4.6,12.8-4.6,22c0,9.1,1.5,16.5,4.6,22c3.1,5.5,7.5,9.5,13.4,12c5.8,2.5,12.8,3.7,21.1,3.7c8.2,0,15.3-1.2,21.1-3.7
	c5.8-2.5,10.3-6.4,13.4-12c3.1-5.5,4.6-12.8,4.6-22C218.2,29,216.7,21.7,213.6,16.2z M187.7,49.4c-1.7,2.2-4.5,3.2-8.6,3.2
	c-4,0-6.8-1.1-8.5-3.2s-2.5-5.9-2.5-11.2s0.8-9,2.5-11.2s4.5-3.2,8.5-3.2c4,0,6.9,1.1,8.6,3.2c1.7,2.2,2.5,5.9,2.5,11.2
	S189.4,47.3,187.7,49.4z"/>
<polygon points="223.9,74.7 223.9,1.8 251.3,1.8 251.3,22.2 267.3,1.8 298.2,1.8 273.3,32 300.5,74.7 271.5,74.7 256.5,49.3 
	251.3,55.7 251.3,74.7 "/>
<polygon points="442.3,74.7 442.3,1.8 468.3,1.8 483.2,31.9 497.9,1.8 524,1.8 524,74.7 496.5,74.7 496.5,49.1 490.1,62.3 
	476.2,62.3 469.7,49.1 469.7,74.7 "/>
<polygon points="553.2,74.7 553.2,48.2 526.8,1.8 555.3,1.8 566.9,25 578.4,1.8 607,1.8 580.6,48.2 580.6,74.7 "/>
</svg>
