<?xml version="1.0" encoding="utf-8"?>
<!-- Generator: Adobe Illustrator 22.0.0, SVG Export Plug-In . SVG Version: 6.00 Build 0)  -->
<svg version="1.1" id="Layer_1" xmlns="http://www.w3.org/2000/svg" xmlns:xlink="http://www.w3.org/1999/xlink" x="0px" y="0px"
	 viewBox="0 0 1346 1363.3" style="enable-background:new 0 0 1346 1363.3;" xml:space="preserve">
<path d="M875.7,799.8c-23.2-116.5-103.2-212-213.8-255.3c-110.7-43.3-234.1-27.5-330.3,42.3L99.8,755
	c-38.5,27.9-66.3,66.6-80.6,111.9c-14.3,45.3-13.6,93,2,137.9c15.6,44.9,44.6,82.8,83.9,109.5c39.3,26.8,85.2,39.9,132.7,37.9
	l3.2-0.1c119.2-4,235.5,42,319.7,126.6c21.7,21.8,47.2,38.5,75.3,49.5c15.2,6,31.3,10.3,47.8,12.7c47,7,94-1.1,136-23.4
	c41.9-22.4,74.8-56.9,95.2-99.9c20.3-43,26.2-90.3,16.9-136.9L875.7,799.8z"/>
<path d="M169,534.3c18,7.1,37.4,10.9,57.5,11c49.2,0.3,95.3-21.4,129.6-61.3c32.7-37.9,50.8-88,51.1-141.2
	c0.3-53.1-17.3-103.4-49.5-141.7c-33.9-40.2-79.6-62.5-128.8-62.8c-98.9-0.6-180,90.2-180.7,202.5C47.8,430.3,98.4,506.6,169,534.3z
	"/>
<path d="M574.6,478.8c107.5,42.1,234-23.3,281.9-145.8c48-122.5-0.5-256.4-108-298.5C641-7.6,514.6,57.9,466.6,180.4
	C418.7,302.8,467.1,436.7,574.6,478.8z"/>
<path d="M1177.6,620.2c36.6-43.9,56.3-97.7,55.7-151.5c-0.6-56.3-23.3-105.8-63.7-139.5c-40.5-33.7-93.3-46.9-148.8-37.3
	c-53,9.2-102.3,38.4-138.8,82.3c-77.1,92.6-73.5,223.2,8,291l0,0c14.4,12,30.2,21.2,47,27.8C1015.4,723.6,1114.1,696.5,1177.6,620.2
	z"/>
<path d="M1310.6,799.9c-52.7-83.8-172.8-103.4-267.9-43.8c-95,59.7-129.5,176.4-76.9,260.2c19.2,30.6,47.3,52.6,80,65.4
	c56.9,22.3,127.5,16.4,187.9-21.5C1328.7,1000.5,1363.2,883.7,1310.6,799.9L1310.6,799.9z"/>
</svg>
